<svg xmlns="http://www.w3.org/2000/svg" xmlns:xlink="http://www.w3.org/1999/xlink" width="475" height="475" fill="none"><g clip-path="url(#K)"><g fill="#474d57"><path opacity=".5" d="M187.27 93h-79v21h79z"/><path d="M81.27 93h27v125h-27z"/></g><path d="M108.27 77c0-24.3 19.7-44 44-44s44 19.7 44 44v37h-88V77z" fill="url(#A)"/><path fill="#fff" d="M196.27 199h-88v30h88z"/><path d="M60.27 268v40l-28 28v-68h28z" fill="#929aa5"/><g stroke-width="40"><path d="M128.27 221v47c0 11.046-8.955 20-20 20h-48" stroke="#fff"/><path d="M173 208l41.858 41.858c7.81 7.8 7.81 20.474 0 28.284L179 314" stroke="url(#B)"/></g><path d="M120 125l-32.486 32.485c-6.248 6.248-16.38 6.248-22.627 0L35.402 128" stroke="url(#C)" stroke-width="32"/><path fill="#929aa5" d="M28 93v28H0V93z"/><path d="M167.77 130h53.874a16 16 0 0011.313-4.686L267.02 91.25" stroke="url(#D)" stroke-width="32"/><path d="M196.27 114h-88v87.96h88V114z" fill="#fff"/><path d="M152.27 50.963c14.36 0 26 11.64 26 26s-11.64 26-26 26v-52zm0 0c-14.36 0-26 11.64-26 26s11.64 26 26 26v-52z" fill="#e8a37d"/><path fill="#929aa5" d="M274.226 56.074v28h28v-28z"/><g stroke-width="4"><path d="M158.27 114v115" stroke="#caced3"/><path d="M145.27 141h-21" stroke="#929aa5"/></g><path fill="#f8d33a" d="M178.958 130l-11.314 11.314 11.314 11.314 11.314-11.314z"/><path fill="#474d57" d="M81.27 51h4v42h-4z"/><path d="M165.8 299.2l28.284 28.284v39.598L146 319l19.8-19.8z" fill="#929aa5"/><path d="M334 185.146l-31-31 31-31 31 31-31 31z" fill="url(#E)"/><path d="M334 185.146l-31-31v27.9l31 31v-27.9z" fill="#f0b90b"/><path d="M334 185.146l31-31v27.9l-31 31v-27.9z" fill="#f8d33a"/><path d="M355 133.096l67-67" stroke="#474d57" stroke-width="4"/><path d="M435.7 28.7v39.598h39.598V28.7H435.7z" fill="url(#F)"/><path d="M435.7 28.7v39.598l-16.9-16.9V11.8l16.9 16.9z" fill="#1773eb"/><path d="M435.7 28.7h39.598l-16.9-16.9H418.8l16.9 16.9z" fill="#328dfd"/><path d="M147 450.413h-21v-21h21v21z" fill="url(#G)"/><path d="M126 450.413v-21l-9 9v21l9-9z" fill="#e56700"/><path d="M126 450.413h21l-8.974 9H117l9-9z" fill="#ff7e0d"/><path d="M240 440.413h-84m166-56.97l-28.97 28.97" stroke-width="4" stroke="#474d57"/><path d="M298.345 429.484l-24.748 24.748-24.75-24.748 24.75-24.75 24.748 24.75z" fill="url(#H)"/><path d="M273.596 454.232l-24.813-24.813v21.18l24.813 24.814v-21.18z" fill="#02c076"/><path d="M273.596 454.232L298.4 429.42v21.18l-24.814 24.813v-21.18z" fill="#28d294"/><path d="M355.778 354.277l-18.18 18.18-18.182-18.18 18.182-18.182 18.18 18.182z" fill="url(#I)"/><path d="M337.597 372.458l-18.23-18.23v15.56l18.23 18.23v-15.56z" fill="#0788a2"/><path d="M337.597 372.458l18.23-18.23v15.56l-18.23 18.23v-15.56z" fill="#12aab5"/><path d="M388 32.096h22" stroke="#474d57" stroke-width="4"/><path d="M356.5 44.89L334 22.39l22.5-22.5 22.5 22.5-22.5 22.5z" fill="url(#J)"/><path d="M356.5 44.89L334 22.39v19.205l22.5 22.5V44.89z" fill="#d9304e"/><path d="M356.5 44.89l22.5-22.5v19.205l-22.5 22.5V44.89z" fill="#f84960"/><path d="M397 155h24v24h-24zM225 334h18v18h-18z" fill="#1e2026"/><path d="M421 358l10-10 10 10-10 10-10-10z" fill="#2b2f36"/><path fill="#1e2026" d="M233 29h12v12h-12z"/><path fill="#2b2f36" d="M84 367h12v12H84z"/><path d="M407 112l8-8 8 8-8 8-8-8zM255 375l6-6 6 6-6 6-6-6z" fill="#f0b90b"/><path d="M277 257.5l4.5-4.5 4.5 4.5-4.5 4.5-4.5-4.5z" fill="#fff"/></g><defs><linearGradient id="A" x1="152.27" y1="33" x2="152.27" y2="114" xlink:href="#L"><stop stop-color="#76808f"/><stop offset="1" stop-color="#474d57" stop-opacity="0"/></linearGradient><linearGradient id="B" x1="215.614" y1="191.605" x2="251.544" y2="253.837" xlink:href="#L"><stop stop-color="#fff"/><stop offset="1" stop-color="#e6e8ea"/></linearGradient><linearGradient id="C" x1="14.324" y1="117.293" x2="14.324" y2="151.433" xlink:href="#L"><stop stop-color="#e6e8ea"/><stop offset="1" stop-color="#fff"/></linearGradient><linearGradient id="D" x1="289.45" y1="64.154" x2="266.374" y2="41.078" xlink:href="#L"><stop stop-color="#e6e8ea"/><stop offset="1" stop-color="#fff"/></linearGradient><linearGradient id="E" x1="303" y1="154.146" x2="365" y2="154.146" xlink:href="#L"><stop stop-color="#f0b90b"/><stop offset="1" stop-color="#f8d33a"/></linearGradient><linearGradient id="F" x1="435.699" y1="68.297" x2="475.297" y2="28.699" xlink:href="#L"><stop stop-color="#1773eb"/><stop offset="1" stop-color="#328dfd"/></linearGradient><linearGradient id="G" x1="147" y1="450.413" x2="126" y2="429.413" xlink:href="#L"><stop stop-color="#ff7e0d"/><stop offset="1" stop-color="#e56700"/></linearGradient><linearGradient id="H" x1="248.848" y1="429.484" x2="298.345" y2="429.484" xlink:href="#L"><stop stop-color="#02c076"/><stop offset="1" stop-color="#28d294"/></linearGradient><linearGradient id="I" x1="319.415" y1="354.277" x2="355.778" y2="354.277" xlink:href="#L"><stop stop-color="#0788a2"/><stop offset="1" stop-color="#12aab5"/></linearGradient><linearGradient id="J" x1="334" y1="22.391" x2="379" y2="22.391" xlink:href="#L"><stop stop-color="#d9304e"/><stop offset="1" stop-color="#f84960"/></linearGradient><linearGradient id="L" gradientUnits="userSpaceOnUse"/><clipPath id="K"><path fill="#fff" d="M0 0h475v475H0z"/></clipPath></defs></svg>